Coordinates
version=1
nRows=10
nColumns=46
inDegrees=yes

Units are S.I. units (second, meters, Newtons, ...)
Angles are in degrees.

endheader
time	pelvis_tilt	pelvis_list	pelvis_rotation	pelvis_tx	pelvis_ty	pelvis_tz	bb_angle	bb_tx	bb_ty	bb_tz	hip_flexion_r	hip_adduction_r	hip_rotation_r	knee_angle_r	knee_angle_r_beta	ankle_angle_r	subtalar_angle_r	mtp_angle_r	crank_angle_r	hip_flexion_l	hip_adduction_l	hip_rotation_l	knee_angle_l	knee_angle_l_beta	ankle_angle_l	subtalar_angle_l	mtp_angle_l	crank_angle_l	lumbar_extension	lumbar_bending	lumbar_rotation	arm_flex_r	arm_add_r	arm_rot_r	elbow_flex_r	pro_sup_r	wrist_flex_r	wrist_dev_r	arm_flex_l	arm_add_l	arm_rot_l	elbow_flex_l	pro_sup_l	wrist_flex_l	wrist_dev_l
      2.50500000	    -23.28630805	      1.21020382	     -5.39861577	      0.07372962	      0.99153300	     -0.20285646	      0.00000000	      0.50000000	      0.00000000	      0.25000000	     94.13858422	     -8.95650646	     -5.02438115	     85.35558059	      1.48973592	      6.83771320	      0.91832459	      0.00000000	      0.00000000	     60.56099837	    -12.03187076	     -3.87040151	     75.39005862	      1.31580475	     -2.86114365	     -7.13557576	      0.00000000	      0.00000000	    -39.91103930	     -0.36500035	      0.77323960	     88.15153031	     -4.08686292	     36.10651441	     30.42839243	     39.42461131	      0.00000000	      0.00000000	     83.23477312	    -14.58517939	     30.12378641	     40.95374558	     42.23691389	      0.00000000	      0.00000000
      2.51000000	    -23.27894462	      1.24305727	     -5.40046772	      0.07370864	      0.99155722	     -0.20285782	      0.00000000	      0.50000000	      0.00000000	      0.25000000	     94.19196800	     -8.96559610	     -4.96881566	     85.43425226	      1.49110900	      6.87279055	      1.05680088	      0.00000000	      0.00000000	     60.49627324	    -11.99761644	     -3.91890519	     75.27552616	      1.31380578	     -2.91155223	     -7.21203481	      0.00000000	      0.00000000	    -39.90850363	     -0.37869877	      0.72104796	     88.16387087	     -3.88358505	     35.61839043	     30.24897150	     39.47897945	      0.00000000	      0.00000000	     83.15324609	    -14.52220211	     29.61943963	     41.01831216	     42.26280619	      0.00000000	      0.00000000
      2.51500000	    -23.35708663	      1.22164990	     -5.44078049	      0.07365163	      0.99142762	     -0.20279766	      0.00000000	      0.50000000	      0.00000000	      0.25000000	     94.32071494	     -8.91966180	     -5.00094348	     85.51599570	      1.49253569	      6.90308780	      0.85759760	      0.00000000	      0.00000000	     60.55090388	    -12.02984542	     -3.89337696	     75.22305130	      1.31288992	     -2.82934169	     -7.14018087	      0.00000000	      0.00000000	    -39.97589795	     -0.37045063	      0.74461744	     87.80654377	     -4.04079754	     34.30348633	     31.93444143	     39.78022322	      0.00000000	      0.00000000	     82.73462749	    -14.69753970	     28.27963749	     42.61680350	     42.42344574	      0.00000000	      0.00000000
      2.52000000	    -23.29377750	      1.22170201	     -5.44303366	      0.07360780	      0.99151375	     -0.20277066	      0.00000000	      0.50000000	      0.00000000	      0.25000000	     94.30668836	     -8.91607330	     -4.97527819	     85.59264183	      1.49387342	      6.90595951	      0.86771756	      0.00000000	      0.00000000	     60.43623642	    -12.03280573	     -3.92828252	     75.11575902	      1.31101732	     -2.89155555	     -7.17657793	      0.00000000	      0.00000000	    -39.91651862	     -0.37255670	      0.79794590	     88.16952145	     -4.14940281	     36.38375411	     30.60775278	     38.95318268	      0.00000000	      0.00000000	     83.24173206	    -14.68495352	     30.32179585	     41.06129097	     42.00999938	      0.00000000	      0.00000000
      2.52500000	    -23.28916768	      1.22897902	     -5.44567642	      0.07358419	      0.99152858	     -0.20279445	      0.00000000	      0.50000000	      0.00000000	      0.25000000	     94.34984384	     -8.92563310	     -4.95708651	     85.65698585	      1.49499643	      6.88559570	      0.88148233	      0.00000000	      0.00000000	     60.38445452	    -12.00744299	     -3.93980234	     75.02994832	      1.30951964	     -2.87062060	     -7.20483523	      0.00000000	      0.00000000	    -39.92737842	     -0.36770325	      0.77996711	     88.18573209	     -4.03166065	     36.07564381	     30.46975469	     39.09867073	      0.00000000	      0.00000000	     83.19526347	    -14.61565853	     29.91038217	     41.11053943	     42.08775260	      0.00000000	      0.00000000
      2.53000000	    -23.27937026	      1.26581069	     -5.45957367	      0.07356141	      0.99154066	     -0.20282541	      0.00000000	      0.50000000	      0.00000000	      0.25000000	     94.39297210	     -8.91808203	     -4.87733617	     85.72082130	      1.49611057	      6.98068739	      1.08325727	      0.00000000	      0.00000000	     60.32911244	    -11.96451828	     -3.98819085	     74.94472201	      1.30803216	     -2.96739364	     -7.39586409	      0.00000000	      0.00000000	    -39.94293542	     -0.38227030	      0.74620660	     88.14788149	     -3.90459803	     35.66892950	     30.50305822	     39.22428675	      0.00000000	      0.00000000	     83.12363012	    -14.59436664	     29.56807240	     41.18795573	     42.13154168	      0.00000000	      0.00000000
      2.53500000	    -23.26278590	      1.36409796	     -5.44680626	      0.07357553	      0.99157471	     -0.20289096	      0.00000000	      0.50000000	      0.00000000	      0.25000000	     94.45909021	     -8.96053292	     -4.75276237	     85.80931664	      1.49765510	      7.06352132	      1.31662506	      0.00000000	      0.00000000	     60.24306326	    -11.86137720	     -4.09843146	     74.83237492	      1.30607133	     -3.09381162	     -7.68314831	      0.00000000	      0.00000000	    -39.95178000	     -0.41570536	      0.56701526	     88.16329102	     -3.27519036	     34.37879368	     30.16395680	     38.34013998	      0.00000000	      0.00000000	     82.87342750	    -14.50842572	     28.41974357	     41.59164548	     41.50042143	      0.00000000	      0.00000000
      2.54000000	    -23.29593935	      1.28378899	     -5.52218411	      0.07348954	      0.99156325	     -0.20275634	      0.00000000	      0.50000000	      0.00000000	      0.25000000	     94.48452257	     -8.85415422	     -4.85135300	     85.81036001	      1.49767331	      6.99430117	      1.08426041	      0.00000000	      0.00000000	     60.25291444	    -11.97477801	     -4.03982092	     74.78909946	      1.30531603	     -2.95812527	     -7.47800949	      0.00000000	      0.00000000	    -39.91049507	     -0.37612604	      0.72754522	     88.20482936	     -3.37753635	     34.59310887	     30.05653625	     38.53147145	      0.00000000	      0.00000000	     82.92519689	    -14.51814450	     28.84711249	     41.43371526	     41.61648517	      0.00000000	      0.00000000
      2.54500000	    -23.30841285	      1.24555313	     -5.48838088	      0.07339849	      0.99145062	     -0.20278958	      0.00000000	      0.50000000	      0.00000000	      0.25000000	     94.52893134	     -8.86614908	     -4.86188521	     85.88005672	      1.49888975	      7.04477696	      0.84647054	      0.00000000	      0.00000000	     60.27846609	    -11.95916124	     -3.96885350	     74.77499263	      1.30506982	     -2.85122688	     -7.46142375	      0.00000000	      0.00000000	    -39.92680248	     -0.37001326	      0.84220202	     88.16463984	     -4.28265443	     36.59939869	     30.97736838	     38.26861202	      0.00000000	      0.00000000	     83.30678332	    -14.74133018	     30.63374301	     41.12714356	     41.55165901	      0.00000000	      0.00000000
      2.55000000	    -23.28375066	      1.30288482	     -5.57296133	      0.07336824	      0.99152724	     -0.20269509	      0.00000000	      0.50000000	      0.00000000	      0.25000000	     94.55024728	     -8.76982740	     -4.74899231	     85.91224372	      1.49945152	      7.07770588	      1.24807720	      0.00000000	      0.00000000	     60.19491504	    -11.98403531	     -4.09709463	     74.69030174	      1.30359168	     -3.08299339	     -7.67074040	      0.00000000	      0.00000000	    -39.98016845	     -0.44831859	      0.78281405	     88.11747151	     -3.96105996	     35.61310221	     31.07261810	     38.46156429	      0.00000000	      0.00000000	     83.11178863	    -14.68928429	     29.60850114	     41.43471703	     41.58896287	      0.00000000	      0.00000000
